<?xml version="1.0"?>
<svg xmlns="http://www.w3.org/2000/svg" xmlns:xlink="http://www.w3.org/1999/xlink" xmlns:svgjs="http://svgjs.com/svgjs" version="1.1" width="512" height="512" x="0" y="0" viewBox="0 0 512 512" style="enable-background:new 0 0 512 512" xml:space="preserve" class=""><g transform="matrix(-1,-2.4492935982947064e-16,-2.4492935982947064e-16,1,511.999984741211,1.1368683772161603e-13)"><g xmlns="http://www.w3.org/2000/svg"><path d="m116 490c-5.026 0-9.692-2.497-12.48-6.68l-26.025-39.037c-17.759-26.639-11.607-62.554 14.005-81.763 1.298-.974 2.877-1.5 4.5-1.5h40c1.623 0 3.202.526 4.5 1.5 25.612 19.209 31.764 55.124 14.005 81.763l-26.025 39.037c-2.788 4.183-7.454 6.68-12.48 6.68z" fill="#ffc108" data-original="#ffde55" style="" class=""/><path d="m166 370h-100c-8.284 0-15-6.716-15-15v-60c0-8.284 6.716-15 15-15h100c8.284 0 15 6.716 15 15v60c0 8.284-6.716 15-15 15z" fill="#3a3131" data-original="#e2dff4" style="" class=""/><g><path d="m396 490c-5.026 0-9.692-2.497-12.48-6.68l-26.025-39.037c-17.759-26.639-11.607-62.554 14.005-81.763 1.298-.974 2.877-1.5 4.5-1.5h40c1.623 0 3.202.526 4.5 1.5 25.612 19.209 31.764 55.124 14.005 81.763l-26.025 39.037c-2.788 4.183-7.454 6.68-12.48 6.68z" fill="#ffc108" data-original="#ffde55" style="" class=""/><path d="m446 370h-100c-8.284 0-15-6.716-15-15v-60c0-8.284 6.716-15 15-15h100c8.284 0 15 6.716 15 15v60c0 8.284-6.716 15-15 15z" fill="#3a3131" data-original="#bebcdd" style="" class=""/></g><path d="m148.265 426.602h.01z" fill="#000000" data-original="#000000" style="" class=""/><path d="m311 512c-8.284 0-15-6.716-15-15v-40c0-8.284 6.716-15 15-15s15 6.716 15 15v40c0 8.284-6.716 15-15 15z" fill="#3a3131" data-original="#e2dff4" style="" class=""/><path d="m201 512c-8.284 0-15-6.716-15-15v-40c0-8.284 6.716-15 15-15s15 6.716 15 15v40c0 8.284-6.716 15-15 15z" fill="#3a3131" data-original="#fff5f5" style="" class=""/><path d="m256 472c-8.284 0-15-6.716-15-15v-70c0-8.284 6.716-15 15-15s15 6.716 15 15v70c0 8.284-6.716 15-15 15z" fill="#3a3131" data-original="#fff5f5" style="" class=""/><path d="m256 372v100c8.284 0 15-6.716 15-15v-70c0-8.284-6.716-15-15-15z" fill="#3a3131" data-original="#e2dff4" style="" class=""/><g><path d="m0 250.001v15c0 24.853 20.147 45 45 45h422c24.853 0 45-20.147 45-45v-15c0-8.284-6.716-15-15-15h-482c-8.284 0-15 6.716-15 15z" fill="#3a3131" data-original="#fff5f5" style="" class=""/><g><path d="m497 235.001h-241v75h211c24.853 0 45-20.147 45-45v-15c0-8.284-6.716-15-15-15z" fill="#3a3131" data-original="#e2dff4" style="" class=""/></g><path d="m512 218.435c0-58.838-44.422-108.18-102.936-114.339l-2.064-.217c-8.284 0-15 6.716-15 15v116.122c0 8.284 6.716 15 15 15h105z" fill="#6f757e" data-original="#8bb9ff" style="" class=""/><path d="m353.55 98.253c-4.042-.425-8.01-1.126-11.906-2.039l-22.754 3.336-7.009-15.999c-8.173-5.299-15.573-11.87-21.912-19.618l-.404-.493-17.356-2.395-1.735-20.939-22.308-27.267c-7.546-9.222-19.121-13.94-30.966-12.62-11.793 1.315-22.009 8.41-27.358 18.994-7.47 14.779-22.481 24.224-39.04 24.224h-49.746c-20.617 0-40.581-6.045-57.735-17.48-4.722-3.15-10.909-3.412-15.983-.42-2.925 1.725-5.124 4.467-6.381 7.62-13.907 34.87-20.957 71.585-20.957 109.131v6.148l202.395 101.565h204.605v-146.122z" fill="#764405" data-original="#bcfbff" style="" class=""/><g><path d="m407 103.879-53.45-5.626c-4.042-.425-8.01-1.126-11.906-2.039l-22.754 3.336-7.009-15.999c-8.173-5.299-15.573-11.87-21.912-19.618l-.404-.493-17.356-2.396-1.735-20.939-14.474-17.69v227.586h151z" fill="#85601a" data-original="#9ddff6" style="" class=""/></g><g fill="#fff5f5"><path d="m292.251 145.607 49.393-49.393c-10.653-2.498-20.691-6.78-29.764-12.662l-40.843 40.843c-5.858 5.858-5.858 15.355 0 21.213 5.859 5.857 15.356 5.857 21.214-.001z" fill="#3a3131" data-original="#fff5f5" style="" class=""/><path d="m249.825 103.181 39.741-39.74-19.091-23.335-41.862 41.862c-5.858 5.858-5.858 15.355 0 21.213 5.857 5.858 15.354 5.857 21.212 0z" fill="#3a3131" data-original="#fff5f5" style="" class=""/></g><path d="m157.027 175.976c-22.33-17.76-50.341-27.54-78.872-27.54h-78.155v101.565h202.395l-.78-3.377c-6.423-27.799-22.258-52.889-44.588-70.648z" fill="#85601a" data-original="#9ddff6" style="" class=""/><g><g><path d="m292.251 145.607 49.393-49.393c-10.653-2.498-20.691-6.78-29.764-12.662l-40.843 40.843c-5.858 5.858-5.858 15.355 0 21.213 5.859 5.857 15.356 5.857 21.214-.001z" fill="#3a3131" data-original="#e2dff4" style="" class=""/><g><path d="m270.474 40.106-14.474 14.474v42.425l33.565-33.565z" fill="#3a3131" data-original="#e2dff4" style="" class=""/></g></g></g></g></g></g></svg>
